<svg xmlns="http://www.w3.org/2000/svg" viewBox="0 0 256 256" role="img" aria-labelledby="title">
  <title id="title">BetterPosters for Nuvio</title>
  <defs>
    <linearGradient id="g" x1="32" y1="24" x2="224" y2="232" gradientUnits="userSpaceOnUse">
      <stop stop-color="#2f9bff"/>
      <stop offset="1" stop-color="#7557ff"/>
    </linearGradient>
  </defs>
  <rect x="20" y="20" width="216" height="216" rx="52" fill="url(#g)"/>
  <path d="M72 58h112a16 16 0 0 1 16 16v108a16 16 0 0 1-16 16H72a16 16 0 0 1-16-16V74a16 16 0 0 1 16-16Z" fill="#fff" opacity=".96"/>
  <path d="m78 171 30-37 22 24 20-30 28 43H78Z" fill="#2f76da"/>
  <circle cx="105" cy="101" r="16" fill="#57cfff"/>
  <path d="m184 43 6 16 16 6-16 6-6 16-6-16-16-6 16-6 6-16Z" fill="#fff"/>
</svg>
